<?xml version="1.0" encoding="utf-8"?>
<!-- Generator: Adobe Illustrator 21.0.0, SVG Export Plug-In . SVG Version: 6.00 Build 0)  -->
<svg version="1.1" xmlns="http://www.w3.org/2000/svg" xmlns:xlink="http://www.w3.org/1999/xlink" x="0px" y="0px"
	 viewBox="0 0 500 500" enable-background="new 0 0 500 500" xml:space="preserve">
<g id="Background" display="none">
	<rect id="XMLID_1_" display="inline" fill="#007DAD" width="500" height="500"/>
</g>
<g id="Objects">
	<g id="XMLID_103_">
		<g id="XMLID_191_">
			<path id="XMLID_201_" fill="none" stroke="#EC9E7A" stroke-width="2" stroke-miterlimit="10" d="M345.38,275.2
				c-3.3-4.84-5.69-10.31-6.91-16.01c-0.89-4.15-1.17-8.43-0.74-12.69c0.86-8.54,4.76-17.29,12.19-21.59
				c4.99-2.9,11.06-3.49,16.78-2.72c5.72,0.77,11.19,2.8,16.56,4.9"/>
			<path id="XMLID_193_" fill="#EC9E7A" d="M379.94,224.71c-0.11-0.01-0.21-0.02-0.32-0.04c-0.04-0.11-0.09-0.21-0.15-0.31
				c-0.64-1.09-2.03-1.45-3.12-0.82c-1.09,0.64-1.45,2.03-0.82,3.12c0.5,0.85,1.46,1.26,2.38,1.09c2.57,3.16,9.56,7.48,9.56,7.48
				s3.19-6.03,4.78-9.05C388.15,225.69,384.05,225.2,379.94,224.71z"/>
		</g>
		<g id="XMLID_104_">
			<g id="XMLID_105_">
				<g id="XMLID_109_">
					<g id="XMLID_110_">
						<g id="XMLID_113_">
							<polygon id="XMLID_190_" fill="#3382AD" points="351.93,243.17 349.88,243.26 332.24,280.2 356.19,312.9 358.53,312.87 
															"/>
							<polygon id="XMLID_189_" fill="#1F6D99" points="376.06,276.1 358.46,312.94 334.33,280.01 351.93,243.17 							"/>
							<path id="XMLID_188_" fill="#0F5A82" d="M355.85,248.51c-1.47,3.03-2.9,6.26-4.24,9.7c-4.38,11.17-6.78,21.65-8.09,30.74
								c5.16,7.61,10.33,15.23,15.49,22.84l17.05-35.69L355.85,248.51z"/>
							<path id="XMLID_186_" fill="#1F6D99" d="M375.81,256.57c1.79,4.89,3.71,11.67,4.4,19.91c0.63,7.54,0.04,14-0.77,18.86
								c-7.48,0.7-14.95,1.4-22.43,2.1c-1.98-2.52-6.83-9.38-7.6-19.5c-0.71-9.36,2.47-16.4,3.97-19.28
								C360.86,257.97,368.33,257.27,375.81,256.57z"/>
							<path id="XMLID_184_" fill="#18648E" d="M357.01,297.44c3.44-0.32,6.89-0.64,10.33-0.97c-5.64-7.55-7.51-17.92-4.21-26.75
								c1.81-4.83,4.93-8.96,8.47-12.77c-6.07,0.57-12.15,1.14-18.22,1.71c-1.5,2.88-4.68,9.92-3.97,19.28
								C350.18,288.07,355.03,294.92,357.01,297.44z"/>
							<path id="XMLID_175_" fill="#12608A" d="M349.67,270.33l29.27-2.74c-0.88-4.32-2.02-8.03-3.12-11.02l-22.43,2.1
								C352.33,260.69,350.44,264.8,349.67,270.33z"/>
						</g>
					</g>
				</g>
				<path id="XMLID_108_" fill="#3382AD" d="M376.02,256.93c0,0-8.27,20.36,3.42,38.41C379.44,295.34,387.34,275.03,376.02,256.93z"
					/>
				<path id="XMLID_106_" fill="#12608A" d="M376.46,259.19c0,0-7.51,18.5,3.11,34.9C379.57,294.09,386.74,275.63,376.46,259.19z"/>
			</g>
		</g>
	</g>
	<g id="XMLID_202_">
		<path id="XMLID_39_" fill="none" stroke="#EC9E7A" stroke-width="2" stroke-miterlimit="10" d="M295.26,117.72
			c8.39,6.06,11.97,16.73,14.07,26.86c2.1,10.14,3.34,20.8,8.83,29.58"/>
		<g id="XMLID_243_">
			<path id="XMLID_244_" fill="#EC9E7A" d="M292.96,118.18c0.11,0.01,0.21,0.02,0.32,0.02c0.05,0.1,0.1,0.21,0.16,0.31
				c0.68,1.06,2.09,1.37,3.15,0.7c1.06-0.68,1.37-2.09,0.7-3.15c-0.53-0.83-1.51-1.2-2.42-1c-2.69-3.06-9.83-7.11-9.83-7.11
				s-2.96,6.15-4.43,9.22C284.72,117.51,288.84,117.85,292.96,118.18z"/>
		</g>
		<g id="XMLID_204_">
			<g id="XMLID_231_">
				<g id="XMLID_234_">
					<g id="XMLID_235_">
						<g id="XMLID_236_">
							<polygon id="XMLID_242_" fill="#3382AD" points="321.92,134.64 319.87,134.73 302.23,171.67 326.18,204.37 328.52,204.34 
															"/>
							<polygon id="XMLID_241_" fill="#1F6D99" points="346.05,167.57 328.45,204.41 304.32,171.48 321.92,134.64 							"/>
							<path id="XMLID_240_" fill="#0F5A82" d="M325.84,139.98c-1.47,3.03-2.9,6.26-4.24,9.7c-4.38,11.17-6.78,21.65-8.09,30.74
								c5.16,7.61,10.33,15.23,15.49,22.84l17.05-35.69L325.84,139.98z"/>
							<path id="XMLID_239_" fill="#1F6D99" d="M345.8,148.04c1.79,4.89,3.71,11.67,4.4,19.91c0.63,7.54,0.04,14-0.77,18.86
								c-7.48,0.7-14.95,1.4-22.43,2.1c-1.98-2.52-6.83-9.38-7.6-19.5c-0.71-9.36,2.47-16.4,3.97-19.28
								C330.85,149.44,338.32,148.74,345.8,148.04z"/>
							<path id="XMLID_238_" fill="#18648E" d="M327,188.91c3.44-0.32,6.89-0.64,10.33-0.97c-5.64-7.55-7.51-17.92-4.21-26.75
								c1.81-4.83,4.93-8.96,8.47-12.77c-6.07,0.57-12.15,1.14-18.22,1.71c-1.5,2.88-4.68,9.92-3.97,19.28
								C320.17,179.54,325.02,186.39,327,188.91z"/>
							<path id="XMLID_237_" fill="#12608A" d="M319.66,161.8l29.27-2.74c-0.88-4.32-2.02-8.03-3.12-11.02l-22.43,2.1
								C322.32,152.17,320.43,156.27,319.66,161.8z"/>
						</g>
					</g>
				</g>
				<path id="XMLID_233_" fill="#3382AD" d="M346.01,148.41c0,0-8.27,20.36,3.42,38.41C349.43,186.82,357.33,166.5,346.01,148.41z"
					/>
				<path id="XMLID_232_" fill="#12608A" d="M346.45,150.66c0,0-7.51,18.5,3.11,34.9C349.55,185.56,356.73,167.1,346.45,150.66z"/>
			</g>
		</g>
	</g>
	<g id="XMLID_43_">
		<g id="XMLID_42_">
			<g id="XMLID_40_">
				<path id="XMLID_123_" fill="#EC7D31" d="M471.82,270.55c3.89-11.27,7.17-23.34,4.78-35.17c-2.3-11.38-11.81-23.5-24.99-23.55
					l-0.01,3c11.12,0.04,19.97,10.78,22.06,21.14c2.24,11.12-0.92,22.72-4.68,33.59L471.82,270.55z"/>
			</g>
			<path id="XMLID_98_" fill="#EC7D31" d="M466.06,273.29c0.11-0.13,0.22-0.27,0.33-0.4c-0.07-0.17-0.13-0.35-0.18-0.53
				c-0.49-1.98,0.72-3.98,2.69-4.47s3.98,0.72,4.47,2.69c0.38,1.55-0.28,3.11-1.53,3.95c0.58,6.56-2.63,19.46-2.63,19.46
				s-10.51-3.39-15.76-5.09C457.65,283.69,461.86,278.49,466.06,273.29z"/>
		</g>
		<g id="XMLID_38_">
			<g id="XMLID_79_">
				<g id="XMLID_75_">
					<g id="XMLID_70_">
						<polygon id="XMLID_100_" fill="#335780" points="377.22,178.38 379.06,175.63 444.99,181.98 470.34,242.46 468.34,245.67 
													"/>
						<polygon id="XMLID_68_" fill="#1F3B61" points="402.75,239.31 468.5,245.65 442.97,184.72 377.22,178.38 						"/>
						<path id="XMLID_99_" opacity="0.56" fill="#193457" d="M381.36,188.28c5.43,0.49,11.1,1.21,16.99,2.21
							c19.13,3.25,35.68,8.66,49.37,14.44c6.25,13.51,12.49,27.02,18.74,40.53l-63.71-6.14L381.36,188.28z"/>
						<path id="XMLID_67_" fill="#1F3B61" d="M375.87,222.66c5.28,6.56,13.08,14.87,23.94,22.71c9.93,7.16,19.38,11.74,26.79,14.67
							c7.21-9.78,14.41-19.56,21.62-29.34c-1.84-4.85-7.3-17.3-20.69-26.8c-12.38-8.79-24.8-10.26-30.04-10.58
							C390.29,203.1,383.08,212.88,375.87,222.66z"/>
						<path id="XMLID_73_" opacity="0.26" fill="#193457" d="M448.23,230.71c-3.32,4.51-6.64,9.01-9.96,13.52
							c-5.76-14.11-18.58-25.36-33.57-28.15c-8.21-1.53-16.54-0.64-24.77,1.09c5.86-7.95,11.71-15.89,17.57-23.84
							c5.24,0.32,17.66,1.8,30.04,10.58C440.92,213.41,446.39,225.86,448.23,230.71z"/>
						<path id="XMLID_107_" fill="#122A4A" d="M416.76,197.9l-28.21,38.29c-5.25-4.82-9.44-9.5-12.67-13.52l21.62-29.34
							C401.19,193.55,408.46,194.37,416.76,197.9z"/>
					</g>
				</g>
			</g>
			<path id="XMLID_37_" fill="#2B4D72" d="M376.21,223.26c0,0,35.13,5.52,50.4,36.78C426.61,260.05,391.85,254.05,376.21,223.26z"/>
			<path id="XMLID_31_" fill="#122A4A" d="M378.97,225.75c0,0,31.92,5.02,45.79,33.42C424.76,259.17,393.18,253.72,378.97,225.75z"
				/>
		</g>
	</g>
	<g id="XMLID_111_">
		<g id="XMLID_180_">
			<path id="XMLID_181_" fill="none" stroke="#EC9E7A" stroke-width="2" stroke-miterlimit="10" d="M209.6,389.92
				c3.3-4.84,5.69-10.31,6.91-16.01c0.89-4.15,1.17-8.43,0.74-12.69c-0.86-8.54-4.76-17.29-12.19-21.59
				c-4.99-2.9-11.06-3.49-16.78-2.72s-11.19,2.8-16.56,4.9"/>
			<path id="XMLID_179_" fill="#EC9E7A" d="M175.04,339.43c0.11-0.01,0.21-0.02,0.32-0.04c0.04-0.11,0.09-0.21,0.15-0.31
				c0.64-1.09,2.03-1.45,3.12-0.82c1.09,0.64,1.45,2.03,0.82,3.12c-0.5,0.85-1.46,1.26-2.38,1.09c-2.57,3.16-9.56,7.48-9.56,7.48
				s-3.19-6.03-4.78-9.05C166.83,340.41,170.93,339.92,175.04,339.43z"/>
		</g>
		<g id="XMLID_135_">
			<g id="XMLID_163_">
				<g id="XMLID_166_">
					<g id="XMLID_167_">
						<g id="XMLID_168_">
							<polygon id="XMLID_174_" fill="#3382AD" points="203.05,357.89 205.1,357.99 222.74,394.93 198.79,427.62 196.45,427.59 
															"/>
							<polygon id="XMLID_173_" fill="#1F6D99" points="178.92,390.83 196.52,427.67 220.65,394.73 203.05,357.89 							"/>
							<path id="XMLID_172_" fill="#0F5A82" d="M199.13,363.24c1.47,3.03,2.9,6.26,4.24,9.7c4.38,11.17,6.78,21.65,8.09,30.74
								c-5.16,7.61-10.33,15.23-15.49,22.84l-17.05-35.69L199.13,363.24z"/>
							<path id="XMLID_171_" fill="#1F6D99" d="M179.17,371.29c-1.79,4.89-3.71,11.67-4.4,19.91c-0.63,7.54-0.04,14,0.77,18.86
								c7.48,0.7,14.95,1.4,22.43,2.1c1.98-2.52,6.83-9.38,7.6-19.5c0.71-9.36-2.47-16.4-3.97-19.28
								C194.12,372.69,186.65,371.99,179.17,371.29z"/>
							<path id="XMLID_170_" fill="#18648E" d="M197.97,412.17c-3.44-0.32-6.89-0.64-10.33-0.97c5.64-7.55,7.51-17.92,4.21-26.75
								c-1.81-4.83-4.93-8.96-8.47-12.77c6.07,0.57,12.15,1.14,18.22,1.71c1.5,2.88,4.68,9.92,3.97,19.28
								C204.8,402.79,199.95,409.65,197.97,412.17z"/>
							<path id="XMLID_169_" fill="#12608A" d="M205.32,385.05l-29.27-2.74c0.88-4.32,2.02-8.03,3.12-11.02l22.43,2.1
								C202.65,375.42,204.54,379.53,205.32,385.05z"/>
						</g>
					</g>
				</g>
				<path id="XMLID_165_" fill="#3382AD" d="M178.96,371.66c0,0,8.27,20.36-3.42,38.41C175.54,410.07,167.64,389.75,178.96,371.66z"
					/>
				<path id="XMLID_164_" fill="#12608A" d="M178.52,373.91c0,0,7.51,18.5-3.11,34.9C175.42,408.81,168.24,390.35,178.52,373.91z"/>
			</g>
		</g>
	</g>
	<g id="XMLID_139_">
		<defs>
			<rect id="XMLID_85_" width="500" height="500"/>
		</defs>
		<clipPath id="XMLID_3_">
			<use xlink:href="#XMLID_85_"  overflow="visible"/>
		</clipPath>
		<g id="XMLID_246_" clip-path="url(#XMLID_3_)">
			<path id="XMLID_263_" fill="#142236" d="M424.91,446.11c0,0,34.52-8.2,51.06,14.92l-6.84,32.77l-20.94,2.42L424.91,446.11z"/>
			<g id="XMLID_253_">
				<path id="XMLID_260_" fill="#D3AB93" d="M390.61,412.68c2.04,0.69,16.63,2.58,20.07,3.02c0.08-0.65,0.2-1.35,0.34-2.08
					l-19.1-14.05c0,0-2.44-2.1-1.95-3.04c0.76-1.47,2.65-1.28,4.37-0.02c1.52,1.12,14.39,9.69,18.08,11.58
					c0.19-0.6,0.38-1.17,0.57-1.71l-17.08-16.78c0,0-1.26-1.54,0.08-2.93c1.34-1.39,3.8,0.82,3.8,0.82s10.34,9.91,16.66,14.47
					c0.62-0.32,0.62-0.32,1.7-0.65c-3.13-5.84-13.09-16.96-13.28-18.41c-0.24-1.88,2.42-2.36,3.47-0.95l16.75,18.91
					c2.79,1.27,5.82,3.23,7.83,3.98c0.07-2.86,0.24-7.99,0.63-11.82c0.57-5.6,3.49-4.32,3.79-4.07c0.3,0.25,3.18,18.94,3.18,18.94
					c-0.12,2.27-0.09,14.69-0.23,15c3,7.93,15.13,47.49,15.13,47.49l-17.76,2.65l-8.83-41.4c0,0-11.36-6.28-16.09-10.08
					c-7.17-2.17-21.78-5.29-23.29-6.14C387.81,414.46,388.29,411.9,390.61,412.68z"/>
				<path id="XMLID_259_" fill="#C3937A" d="M448.76,459.87c-1.87-6.1-3.47-12.29-5.23-18.39c-1.16-4.03-2.29-8.09-3.77-12.01
					c-0.61-1.61-4.16-2.31-3.33-3.79c1.06-1.87,2.53-4.62,2.94-7.93c0.29-2.37,0.69-4.63,1.07-6.88
					c-0.05,4.44-0.06,11.78-0.16,12.02c1.3,3.44,4.32,12.84,7.33,22.38c1.74,5.51,3.46,11.06,4.85,15.54
					C451.19,460.52,449.96,460.21,448.76,459.87z"/>
				<path id="XMLID_257_" fill="#C3937A" d="M427,412.63c-1.06,2.15,0.04,4.76,1.57,6.6c1.53,1.84,3.5,3.36,4.59,5.5
					c-1.69-3.32-2.12-7.54-1.76-11.2c0.19-1.94,0.96-3.69,1.28-5.57c0.32-1.92-1.23,0.02-1.81,0.7
					C429.66,410.06,427.84,410.93,427,412.63z"/>
				<path id="XMLID_256_" fill="#C3937A" d="M415.59,410.56c0.25,1.3-0.07,2.64-0.5,3.9s-0.95,2.49-1.14,3.8
					c-0.18,1.3,0.04,2.65,0.88,3.69C410.2,420.15,413.79,413.42,415.59,410.56z"/>
				<path id="XMLID_254_" fill="#C3937A" d="M432.27,427.17l0.5-0.5l-2.28,4.72l7.96,39.41l-0.78,2.2l-8.83-41.4
					c0,0-11.36-6.28-16.09-10.08c-7.17-2.17-21.78-5.29-23.29-6.14c-0.57-0.32-0.88-0.84-0.95-1.35l23.31,5.37l15.35,8.48
					C428.84,428.81,430.92,428.52,432.27,427.17z"/>
			</g>
			<path id="XMLID_249_" fill="#414C6D" d="M424.91,446.11c0,0,19.1,20.9,51.06,14.92c0.96,5.99-15.7,81.97-15.7,81.97l-8.15-4.14
				L424.91,446.11z"/>
			<path id="XMLID_248_" fill="#20344F" d="M475.97,461.03c0.96,5.99-3.2,82.72-3.2,82.72l-20.65-4.89l-2.14-7.28
				c5.74-22.82,9.66-46.14,11.5-69.57C465.96,462.25,470.79,462,475.97,461.03z"/>
			<path id="XMLID_247_" fill="#335274" d="M461.48,462.01c-1.84,23.43-5.76,46.75-11.5,69.57l-8.41,2.57l-16.67-88.05
				C424.91,446.11,438.33,460.77,461.48,462.01z"/>
		</g>
		<g id="XMLID_250_" clip-path="url(#XMLID_3_)">
			<path id="XMLID_278_" fill="#142236" d="M260.48,443.24c0,0,34.14,9.69,37.28,37.94l-21.96,25.26l-19.46-8.11L260.48,443.24z"/>
			<g id="XMLID_269_">
				<path id="XMLID_277_" fill="#D3AB93" d="M246.86,397.32c1.44,1.6,13.25,10.36,16.04,12.43c0.39-0.53,0.83-1.09,1.31-1.65
					l-9.81-21.58c0,0-1.1-3.03-0.22-3.61c1.38-0.91,2.94,0.18,3.82,2.12c0.78,1.72,7.83,15.48,10.13,18.94
					c0.45-0.43,0.9-0.84,1.34-1.22l-6.72-22.99c0,0-0.34-1.96,1.5-2.52c1.85-0.56,2.91,2.57,2.91,2.57s4.19,13.7,7.48,20.76
					c0.7,0.02,0.7,0.02,1.8,0.26c0.12-6.62-3.15-21.19-2.61-22.55c0.7-1.76,3.27-0.88,3.49,0.86l5.39,24.68
					c1.82,2.47,3.5,5.65,4.89,7.3c1.45-2.46,4.1-6.86,6.32-10.01c3.23-4.61,5.16-2.07,5.3-1.71c0.14,0.36-6.47,18.08-6.47,18.08
					c-1.22,1.92-7.24,12.78-7.52,12.98c-1.25,8.38-9.97,48.83-9.97,48.83l-16.79-6.36l12.5-40.44c0,0-6.85-11.02-9.12-16.65
					c-5.2-5.4-16.43-15.25-17.33-16.73C243.55,397.51,245.22,395.51,246.86,397.32z"/>
				<path id="XMLID_276_" fill="#C3937A" d="M274.58,466.89c1.34-6.23,2.97-12.42,4.42-18.6c0.95-4.08,1.95-8.17,2.57-12.32
					c0.26-1.71-2.51-4.05-1.05-4.93c1.84-1.12,4.46-2.79,6.44-5.49c1.41-1.93,2.86-3.7,4.3-5.48c-2.21,3.85-5.8,10.25-6.01,10.41
					c-0.54,3.64-2.49,13.32-4.53,23.11c-1.17,5.66-2.38,11.35-3.35,15.93C276.38,468.65,275.46,467.77,274.58,466.89z"/>
				<path id="XMLID_275_" fill="#C3937A" d="M278.65,415.04c-1.97,1.35-2.29,4.17-1.86,6.53c0.43,2.35,1.41,4.64,1.32,7.04
					c0.15-3.72,1.83-7.61,3.93-10.63c1.11-1.6,2.64-2.75,3.83-4.24c1.21-1.52-1.08-0.58-1.93-0.27
					C282.22,414.09,280.2,413.97,278.65,415.04z"/>
				<path id="XMLID_274_" fill="#C3937A" d="M269.69,407.67c-0.42,1.26-1.35,2.27-2.33,3.16c-0.98,0.89-2.05,1.71-2.85,2.76
					c-0.8,1.05-1.26,2.33-1.04,3.65C260.31,413.4,266.73,409.28,269.69,407.67z"/>
				<path id="XMLID_272_" fill="#C3937A" d="M276.14,430.3l0.68-0.19l-4.3,3.01l-12.29,38.28l-1.75,1.54l12.5-40.44
					c0,0-6.85-11.02-9.12-16.65c-5.2-5.4-16.43-15.25-17.33-16.73c-0.34-0.56-0.36-1.17-0.17-1.65l17.72,16.06l9.26,14.9
					C272.35,430.06,274.3,430.82,276.14,430.3z"/>
			</g>
			<path id="XMLID_266_" fill="#414C6D" d="M260.48,443.24c0,0,6.48,27.56,37.28,37.94c-2.09,5.7-53.71,63.88-53.71,63.88
				l-5.09-7.59L260.48,443.24z"/>
			<path id="XMLID_265_" fill="#20344F" d="M297.76,481.18c-2.09,5.7-43.17,70.64-43.17,70.64l-15.63-14.34l1.69-7.4
				c16.15-17.12,30.95-35.56,43.99-55.11C288.43,477.36,292.77,479.5,297.76,481.18z"/>
			<path id="XMLID_251_" fill="#335274" d="M284.64,474.97c-13.04,19.55-27.84,37.99-43.99,55.11l-8.59-1.86l28.43-84.98
				C260.48,443.24,265.03,462.59,284.64,474.97z"/>
		</g>
		<g id="XMLID_34_" clip-path="url(#XMLID_3_)">
			<path id="XMLID_178_" fill="#192035" d="M406.88,407.53c0,0-54.88-13.04-81.16,23.72l10.87,52.09l33.28,3.84L406.88,407.53z"/>
			<g id="XMLID_177_">
				<path id="XMLID_36_" fill="#F2A176" d="M461.4,354.39c-3.24,1.09-26.43,4.1-31.9,4.79c-0.13-1.04-0.31-2.15-0.53-3.3
					l30.36-22.34c0,0,3.87-3.35,3.1-4.83c-1.21-2.34-4.21-2.03-6.95-0.02c-2.42,1.78-22.87,15.4-28.75,18.42
					c-0.3-0.95-0.6-1.86-0.91-2.73l27.15-26.68c0,0,2-2.45-0.13-4.66c-2.13-2.2-6.04,1.31-6.04,1.31s-16.44,15.76-26.49,23
					c-0.99-0.51-0.99-0.51-2.7-1.04c4.97-9.28,20.81-26.96,21.11-29.27c0.39-2.98-3.85-3.76-5.52-1.51l-26.63,30.07
					c-4.44,2.01-9.25,5.13-12.45,6.33c-0.11-4.54-0.37-12.7-1-18.79c-0.91-8.9-5.55-6.87-6.03-6.48c-0.48,0.4-5.05,30.11-5.05,30.11
					c0.2,3.61,0.14,23.35,0.36,23.84c-4.77,12.6-24.06,75.49-24.06,75.49l28.23,4.2l14.03-65.81c0,0,18.06-9.98,25.57-16.02
					c11.4-3.46,34.62-8.41,37.02-9.77C465.84,357.22,465.08,353.15,461.4,354.39z"/>
				<path id="XMLID_261_" opacity="0.49" fill="#E6875B" d="M368.96,429.4c2.97-9.69,5.52-19.54,8.31-29.24
					c1.84-6.4,3.64-12.85,5.99-19.09c0.97-2.57,6.62-3.67,5.29-6.02c-1.68-2.98-4.02-7.34-4.68-12.61
					c-0.47-3.77-1.09-7.35-1.71-10.94c0.08,7.06,0.09,18.73,0.26,19.11c-2.07,5.47-6.87,20.41-11.65,35.57
					c-2.76,8.76-5.51,17.59-7.71,24.71C365.09,430.45,367.06,429.95,368.96,429.4z"/>
				<path id="XMLID_32_" fill="#E6875B" d="M403.55,354.31c1.69,3.41-0.06,7.56-2.49,10.49c-2.43,2.93-5.56,5.35-7.29,8.74
					c2.68-5.28,3.36-11.98,2.8-17.8c-0.3-3.09-1.53-5.86-2.03-8.85c-0.51-3.05,1.95,0.03,2.88,1.12
					C399.33,350.22,402.22,351.62,403.55,354.31z"/>
				<path id="XMLID_182_" fill="#E6875B" d="M421.69,351.03c-0.4,2.07,0.11,4.2,0.79,6.19c0.67,1.99,1.52,3.96,1.81,6.04
					c0.29,2.07-0.06,4.21-1.39,5.87C430.25,366.26,424.55,355.56,421.69,351.03z"/>
				<path id="XMLID_35_" fill="#E6875B" d="M395.18,377.43l-0.8-0.79l3.63,7.51l-12.65,62.66l1.24,3.49l14.03-65.81
					c0,0,18.06-9.98,25.57-16.02c11.4-3.46,34.62-8.41,37.02-9.77c0.91-0.51,1.4-1.34,1.51-2.15l-37.05,8.53l-24.4,13.49
					C400.63,380.03,397.33,379.57,395.18,377.43z"/>
			</g>
			<path id="XMLID_176_" fill="#414C6D" d="M406.88,407.53c0,0-30.37,33.22-81.16,23.72c-1.52,9.53,24.96,130.31,24.96,130.31
				l12.95-6.58L406.88,407.53z"/>
			<path id="XMLID_196_" fill="#29304C" d="M325.71,431.25c-1.52,9.53,5.09,131.5,5.09,131.5l32.82-7.77l3.4-11.57
				c-9.13-36.28-15.35-73.34-18.28-110.59C341.62,433.19,333.94,432.79,325.71,431.25z"/>
			<path id="XMLID_200_" fill="#414C6D" d="M348.74,432.81c2.93,37.25,9.15,74.32,18.28,110.59l13.37,4.09l26.5-139.97
				C406.88,407.53,385.54,430.85,348.74,432.81z"/>
		</g>
		<g id="XMLID_252_" clip-path="url(#XMLID_3_)">
			<path id="XMLID_290_" fill="#142236" d="M97.69,457.11c0,0-34.52-8.2-51.06,14.92l6.84,32.77l20.94,2.42L97.69,457.11z"/>
			<g id="XMLID_279_">
				<path id="XMLID_287_" fill="#D3AB93" d="M131.99,423.68c-2.04,0.69-16.63,2.58-20.07,3.02c-0.08-0.65-0.2-1.35-0.34-2.08
					l19.1-14.05c0,0,2.44-2.1,1.95-3.04c-0.76-1.47-2.65-1.28-4.37-0.02c-1.52,1.12-14.39,9.69-18.08,11.58
					c-0.19-0.6-0.38-1.17-0.57-1.71l17.08-16.78c0,0,1.26-1.54-0.08-2.93c-1.34-1.39-3.8,0.82-3.8,0.82s-10.34,9.91-16.66,14.47
					c-0.62-0.32-0.62-0.32-1.7-0.65c3.13-5.84,13.09-16.96,13.28-18.41c0.24-1.88-2.42-2.36-3.47-0.95L97.5,411.86
					c-2.79,1.27-5.82,3.23-7.83,3.98c-0.07-2.86-0.24-7.99-0.63-11.82c-0.57-5.6-3.49-4.32-3.79-4.07
					c-0.3,0.25-3.18,18.94-3.18,18.94c0.12,2.27,0.09,14.69,0.23,15c-3,7.93-15.13,47.49-15.13,47.49l17.76,2.65l8.83-41.4
					c0,0,11.36-6.28,16.09-10.08c7.17-2.17,21.78-5.29,23.29-6.14C134.78,425.46,134.3,422.9,131.99,423.68z"/>
				<path id="XMLID_286_" fill="#C3937A" d="M73.83,470.87c1.87-6.1,3.47-12.29,5.23-18.39c1.16-4.03,2.29-8.09,3.77-12.01
					c0.61-1.61,4.16-2.31,3.33-3.79c-1.06-1.87-2.53-4.62-2.94-7.93c-0.29-2.37-0.69-4.63-1.07-6.88
					c0.05,4.44,0.06,11.78,0.16,12.02c-1.3,3.44-4.32,12.84-7.33,22.38c-1.74,5.51-3.46,11.06-4.85,15.54
					C71.4,471.52,72.64,471.21,73.83,470.87z"/>
				<path id="XMLID_285_" fill="#C3937A" d="M95.59,423.63c1.06,2.15-0.04,4.76-1.57,6.6c-1.53,1.84-3.5,3.36-4.59,5.5
					c1.69-3.32,2.12-7.54,1.76-11.2c-0.19-1.94-0.96-3.69-1.28-5.57c-0.32-1.92,1.23,0.02,1.81,0.7
					C92.94,421.06,94.76,421.93,95.59,423.63z"/>
				<path id="XMLID_284_" fill="#C3937A" d="M107.01,421.56c-0.25,1.3,0.07,2.64,0.5,3.9s0.95,2.49,1.14,3.8
					c0.18,1.3-0.04,2.65-0.88,3.69C112.39,431.15,108.81,424.42,107.01,421.56z"/>
				<path id="XMLID_280_" fill="#C3937A" d="M90.33,438.17l-0.5-0.5l2.28,4.72l-7.96,39.41l0.78,2.2l8.83-41.4
					c0,0,11.36-6.28,16.09-10.08c7.17-2.17,21.78-5.29,23.29-6.14c0.57-0.32,0.88-0.84,0.95-1.35l-23.31,5.37l-15.35,8.48
					C93.76,439.81,91.68,439.52,90.33,438.17z"/>
			</g>
			<path id="XMLID_271_" fill="#414C6D" d="M97.69,457.11c0,0-19.1,20.9-51.06,14.92c-0.96,5.99,15.7,81.97,15.7,81.97l8.15-4.14
				L97.69,457.11z"/>
			<path id="XMLID_264_" fill="#20344F" d="M46.63,472.03c-0.96,5.99,3.2,82.72,3.2,82.72l20.65-4.89l2.14-7.28
				c-5.74-22.82-9.66-46.14-11.5-69.57C56.64,473.25,51.81,473,46.63,472.03z"/>
			<path id="XMLID_255_" fill="#335274" d="M61.11,473.01c1.84,23.43,5.76,46.75,11.5,69.57l8.41,2.57l16.67-88.05
				C97.69,457.11,84.26,471.77,61.11,473.01z"/>
		</g>
		<g id="XMLID_51_" clip-path="url(#XMLID_3_)">
			<g id="XMLID_65_">
				<g id="XMLID_69_">
					<path id="XMLID_83_" fill="#F0731F" d="M20.52,555.15c-9.45-32.34-8.45-67.64,2.8-99.4l3.01,1.06
						c-11.03,31.13-12,65.74-2.74,97.44L20.52,555.15z"/>
				</g>
				<path id="XMLID_66_" fill="#F0731F" d="M21.99,545.78c0.69-1.41,0.47-3.17-0.69-4.36c-1.48-1.52-3.91-1.56-5.43-0.08
					c-1.52,1.48-1.56,3.91-0.08,5.43c0.14,0.14,0.29,0.27,0.44,0.38c-0.03,0.18-0.06,0.36-0.09,0.54
					c-1.05,6.89-2.11,13.78-3.16,20.68c5.62-1.23,16.86-3.69,16.86-3.69S25.96,551.38,21.99,545.78z"/>
			</g>
			<g id="XMLID_52_">
				<g id="XMLID_56_">
					<g id="XMLID_57_">
						<g id="XMLID_58_">
							<polygon id="XMLID_64_" fill="#192035" points="87.56,473.94 85.46,477.71 -0.71,476.47 -39.98,400.73 -37.74,396.35 							
								"/>
							<polygon id="XMLID_63_" fill="#29304C" points="47.99,397.64 -37.94,396.4 1.62,472.7 87.56,473.94 							"/>
							<path id="XMLID_62_" opacity="0.56" fill="#193457" d="M81.14,461.55c-7.09-0.06-14.52-0.39-22.26-1.06
								c-25.15-2.18-47.18-7.45-65.55-13.48c-9.53-16.86-19.07-33.71-28.6-50.57l83.26,1.2L81.14,461.55z"/>
							<path id="XMLID_61_" fill="#414C6D" d="M84.61,416.38c-7.54-7.94-18.54-17.9-33.45-26.91c-13.63-8.23-26.37-13.16-36.3-16.18
								c-8.31,13.45-16.61,26.89-24.92,40.34c2.9,6.09,11.3,21.66,29.67,32.55c16.99,10.08,33.25,10.67,40.08,10.54
								C67.99,443.27,76.3,429.82,84.61,416.38z"/>
							<path id="XMLID_60_" fill="#29304C" d="M-10.07,413.62c3.83-6.19,7.65-12.39,11.48-18.58c8.96,17.69,26.78,30.92,46.52,32.94
								c10.81,1.11,21.51-0.93,32-4.04c-6.75,10.93-13.5,21.85-20.25,32.78c-6.83,0.14-23.09-0.46-40.08-10.54
								C1.24,435.28-7.17,419.72-10.07,413.62z"/>
							<path id="XMLID_59_" fill="#192035" d="M34.22,452.83l32.52-52.64c7.32,5.7,13.25,11.32,17.87,16.19l-24.92,40.34
								C54.87,456.81,45.36,456.53,34.22,452.83z"/>
						</g>
					</g>
				</g>
				<path id="XMLID_55_" fill="#414C6D" d="M84.11,415.64c0,0-46.14-3.43-69.25-42.35C14.85,373.29,60.56,377.38,84.11,415.64z"/>
				<path id="XMLID_53_" fill="#192035" d="M80.27,412.71c0,0-41.93-3.12-62.93-38.48C17.34,374.22,58.87,377.94,80.27,412.71z"/>
			</g>
		</g>
		<g id="XMLID_147_" clip-path="url(#XMLID_3_)">
			<path id="XMLID_221_" fill="#192035" d="M91.38,415.53c0,0,54.88-13.04,81.16,23.72l-10.87,52.09l-33.28,3.84L91.38,415.53z"/>
			<g id="XMLID_211_">
				<path id="XMLID_218_" fill="#F2A176" d="M36.86,362.39c3.24,1.09,26.43,4.1,31.9,4.79c0.13-1.04,0.31-2.15,0.53-3.3
					l-30.36-22.34c0,0-3.87-3.35-3.1-4.83c1.21-2.34,4.21-2.03,6.95-0.02c2.42,1.78,22.87,15.4,28.75,18.42
					c0.3-0.95,0.6-1.86,0.91-2.73L45.29,325.7c0,0-2-2.45,0.13-4.66c2.13-2.2,6.04,1.31,6.04,1.31s16.44,15.76,26.49,23
					c0.99-0.51,0.99-0.51,2.7-1.04c-4.97-9.28-20.81-26.96-21.11-29.27c-0.39-2.98,3.85-3.76,5.52-1.51l26.63,30.07
					c4.44,2.01,9.25,5.13,12.45,6.33c0.11-4.54,0.37-12.7,1-18.79c0.91-8.9,5.55-6.87,6.03-6.48c0.48,0.4,5.05,30.11,5.05,30.11
					c-0.2,3.61-0.14,23.35-0.36,23.84c4.77,12.6,24.06,75.49,24.06,75.49l-28.23,4.2l-14.03-65.81c0,0-18.06-9.98-25.57-16.02
					c-11.4-3.46-34.62-8.41-37.02-9.77C32.42,365.22,33.18,361.15,36.86,362.39z"/>
				<path id="XMLID_217_" opacity="0.49" fill="#E6875B" d="M129.3,437.4c-2.97-9.69-5.52-19.54-8.31-29.24
					c-1.84-6.4-3.64-12.85-5.99-19.09c-0.97-2.57-6.62-3.67-5.29-6.02c1.68-2.98,4.02-7.34,4.68-12.61
					c0.47-3.77,1.09-7.35,1.71-10.94c-0.08,7.06-0.09,18.73-0.26,19.11c2.07,5.47,6.87,20.41,11.65,35.57
					c2.76,8.76,5.51,17.59,7.71,24.71C133.17,438.45,131.2,437.95,129.3,437.4z"/>
				<path id="XMLID_216_" fill="#E6875B" d="M94.71,362.31c-1.69,3.41,0.06,7.56,2.49,10.49s5.56,5.35,7.29,8.74
					c-2.68-5.28-3.36-11.98-2.8-17.8c0.3-3.09,1.53-5.86,2.03-8.85c0.51-3.05-1.95,0.03-2.88,1.12
					C98.94,358.22,96.05,359.62,94.71,362.31z"/>
				<path id="XMLID_215_" fill="#E6875B" d="M76.57,359.03c0.4,2.07-0.11,4.2-0.79,6.19c-0.67,1.99-1.52,3.96-1.81,6.04
					c-0.29,2.07,0.06,4.21,1.39,5.87C68.01,374.26,73.71,363.56,76.57,359.03z"/>
				<path id="XMLID_212_" fill="#E6875B" d="M103.08,385.43l0.8-0.79l-3.63,7.51l12.65,62.66l-1.24,3.49l-14.03-65.81
					c0,0-18.06-9.98-25.57-16.02c-11.4-3.46-34.62-8.41-37.02-9.77c-0.91-0.51-1.4-1.34-1.51-2.15l37.05,8.53l24.4,13.49
					C97.63,388.03,100.93,387.57,103.08,385.43z"/>
			</g>
			<path id="XMLID_157_" fill="#414C6D" d="M91.38,415.53c0,0,30.37,33.22,81.16,23.72c1.52,9.53-24.96,130.31-24.96,130.31
				l-12.95-6.58L91.38,415.53z"/>
			<path id="XMLID_153_" fill="#29304C" d="M172.55,439.25c1.52,9.53-5.09,131.5-5.09,131.5l-32.82-7.77l-3.4-11.57
				c9.13-36.28,15.35-73.34,18.28-110.59C156.64,441.19,164.32,440.79,172.55,439.25z"/>
			<path id="XMLID_149_" fill="#414C6D" d="M149.53,440.81c-2.93,37.25-9.15,74.32-18.28,110.59l-13.37,4.09l-26.5-139.97
				C91.38,415.53,112.72,438.85,149.53,440.81z"/>
		</g>
		<g id="XMLID_137_" clip-path="url(#XMLID_3_)">
			<path id="XMLID_162_" fill="#192035" d="M457.51,487.14c0,0-19.4-42-22.18-46.47l83.77-41.5l16.85,49.3c0,0-3.28,26.5-29,38.5
				C481.22,498.98,457.51,487.14,457.51,487.14z"/>
			<g id="XMLID_154_">
				<defs>
					<path id="XMLID_155_" d="M457.51,487.14c0,0-19.4-42-22.18-46.47l83.77-41.5l16.85,49.3c0,0-3.28,26.5-29,38.5
						C481.22,498.98,457.51,487.14,457.51,487.14z"/>
				</defs>
				<clipPath id="XMLID_4_">
					<use xlink:href="#XMLID_155_"  overflow="visible"/>
				</clipPath>
				<path id="XMLID_161_" clip-path="url(#XMLID_4_)" fill="#29304C" d="M439.78,453.89c1.5,0,30.5,4.75,30.5,4.75l15.29,36
					c0,0-30.29-0.25-31.04,0S439.78,453.89,439.78,453.89z"/>
				<path id="XMLID_160_" clip-path="url(#XMLID_4_)" fill="#29304C" d="M439.78,453.89c0,0,14,41,14.75,40.75
					c0.3-0.1,5.23-0.12,11.08-0.11l-18.16-39.55C443.37,454.35,440.24,453.89,439.78,453.89z"/>
				<path id="XMLID_159_" clip-path="url(#XMLID_4_)" fill="#29304C" d="M470.28,458.64c0,0-5.48-0.9-11.8-1.91l12.97,37.82
					c7.27,0.03,14.12,0.09,14.12,0.09L470.28,458.64z"/>
				<path id="XMLID_156_" clip-path="url(#XMLID_4_)" fill="#414C6D" d="M447.45,454.98l18.16,39.55c1.89,0,3.88,0.01,5.84,0.02
					l-12.97-37.82C454.78,456.14,450.79,455.5,447.45,454.98z"/>
			</g>
			<polygon id="XMLID_151_" fill="#29304C" points="495.54,465.64 411.05,453.51 409.55,447.84 456.99,381.81 539.98,388.28 
				539.98,394.64 			"/>
			<polygon id="XMLID_148_" fill="#29304C" points="494.04,459.97 409.55,447.84 455.49,376.14 539.98,388.28 			"/>
			<path id="XMLID_145_" fill="#414C6D" d="M509.64,383.92c-24.25,32.06-55.19,61.6-97.24,59.48l-2.85,4.45l84.49,12.13l45.94-71.7
				L509.64,383.92z"/>
			<g id="XMLID_140_">
				<g id="XMLID_143_">
					<path id="XMLID_144_" fill="#F0731F" d="M464.07,405.01c0.24-0.01,0.48-0.01,0.72-0.01c4.63,0.1,8.36,2.94,11.07,8.44
						c0.49,0.99,0.08,2.19-0.91,2.68c-0.99,0.49-2.19,0.08-2.68-0.91c-2.03-4.12-4.51-6.15-7.57-6.22
						c-6.6-0.13-22.67,8.75-56.17,69.91c-0.53,0.97-1.74,1.33-2.72,0.79c-0.97-0.53-1.32-1.75-0.79-2.71
						C430.88,429.8,450.74,405.59,464.07,405.01z"/>
				</g>
				
					<ellipse id="XMLID_142_" transform="matrix(0.0147 -0.9999 0.9999 0.0147 -46.1323 870.3483)" fill="#F0731F" cx="418.56" cy="458.58" rx="5.61" ry="5.61"/>
				<path id="XMLID_141_" fill="#F0731F" d="M408.97,491.5c0,0-14.15-9.06-21.22-13.6c8.2-6.03,16.41-12.06,24.61-18.09
					c1.34-0.98,2.74-2,4.38-2.29C428.8,455.35,408.97,491.5,408.97,491.5z"/>
			</g>
		</g>
	</g>
	<g id="XMLID_45_">
		<g id="XMLID_96_">
			<g id="XMLID_44_">
				<path id="XMLID_97_" fill="#EC7D31" d="M308.04,431.55c-5.33-31.24-0.58-64.11,13.37-92.56l2.69,1.32
					c-13.67,27.89-18.32,60.12-13.1,90.74L308.04,431.55z"/>
			</g>
			<path id="XMLID_126_" fill="#EC7D31" d="M310.42,422.96c0.8-1.25,0.78-2.91-0.18-4.15c-1.22-1.58-3.49-1.88-5.07-0.66
				c-1.58,1.22-1.88,3.49-0.66,5.07c0.11,0.15,0.24,0.28,0.37,0.41c-0.05,0.16-0.09,0.33-0.14,0.49
				c-1.73,6.33-3.46,12.65-5.19,18.98c5.38-0.54,16.15-1.62,16.15-1.62S313.52,428.62,310.42,422.96z"/>
		</g>
		<g id="XMLID_46_">
			<g id="XMLID_72_">
				<g id="XMLID_74_">
					<g id="XMLID_76_">
						<polygon id="XMLID_93_" fill="#335780" points="365.9,283.38 368.17,285.8 347.05,348.59 282.4,359.57 279.72,356.9 						"/>
						<polygon id="XMLID_90_" fill="#1F3B61" points="300.77,294.45 279.71,357.06 344.84,346 365.9,283.38 						"/>
						<path id="XMLID_87_" opacity="0.56" fill="#193457" d="M355.33,285.18c-1.71,5.17-3.69,10.54-6,16.04
							c-7.5,17.9-16.52,32.79-25.24,44.81c-14.57,3.02-29.15,6.05-43.72,9.07l20.41-60.66L355.33,285.18z"/>
						<path id="XMLID_84_" fill="#1F3B61" d="M323.08,272.05c-7.58,3.66-17.45,9.37-27.54,18.17c-9.22,8.05-15.82,16.21-20.36,22.77
							c7.89,9.23,15.79,18.47,23.68,27.7c5.14-0.69,18.5-3.19,30.79-14.08c11.36-10.07,15.61-21.83,17.11-26.87
							C338.86,290.52,330.97,281.28,323.08,272.05z"/>
						<path id="XMLID_81_" fill="#193457" d="M298.85,340.7c-3.64-4.25-7.27-8.51-10.91-12.76c15.05-2.41,28.91-12.35,35.02-26.33
							c3.35-7.65,4.36-15.96,4.55-24.37c6.41,7.5,12.83,15.01,19.24,22.51c-1.5,5.03-5.75,16.79-17.11,26.87
							C317.36,337.5,304,340,298.85,340.7z"/>
						<path id="XMLID_77_" fill="#122A4A" d="M337.94,317.48l-30.9-36.15c5.89-4.02,11.39-7.04,16.04-9.28l23.68,27.7
							C345.7,303.3,343.26,310.19,337.94,317.48z"/>
					</g>
				</g>
			</g>
			<path id="XMLID_50_" fill="#2B4D72" d="M322.42,272.24c0,0-13.34,32.97-47.24,40.76C275.17,312.99,288.89,280.5,322.42,272.24z"
				/>
			<path id="XMLID_47_" fill="#122A4A" d="M319.37,274.36c0,0-12.12,29.96-42.93,37.03C276.44,311.4,288.91,281.87,319.37,274.36z"
				/>
		</g>
	</g>
	<g id="XMLID_116_">
		<path id="XMLID_71_" fill="#192035" d="M152.41,348.54c0,0-26.03-55.84-29.76-61.78l111.36-55.66l22.67,65.58
			c0,0-4.24,35.31-38.44,51.41S152.41,348.54,152.41,348.54z"/>
		<g id="XMLID_80_">
			<defs>
				<path id="XMLID_78_" d="M152.41,348.54c0,0-26.03-55.84-29.76-61.78l111.36-55.66l22.67,65.58c0,0-4.24,35.31-38.44,51.41
					S152.41,348.54,152.41,348.54z"/>
			</defs>
			<clipPath id="XMLID_5_">
				<use xlink:href="#XMLID_78_"  overflow="visible"/>
			</clipPath>
			<path id="XMLID_54_" clip-path="url(#XMLID_5_)" fill="#29304C" d="M128.64,304.35c2-0.01,40.64,6.18,40.64,6.18l20.53,47.87
				c0,0-40.34-0.19-41.33,0.15C147.48,358.88,128.64,304.35,128.64,304.35z"/>
			<path id="XMLID_114_" clip-path="url(#XMLID_5_)" fill="#29304C" d="M128.64,304.35c0,0,18.84,54.54,19.83,54.2
				c0.4-0.13,6.97-0.18,14.76-0.2l-24.37-52.59C133.42,304.94,129.26,304.35,128.64,304.35z"/>
			<path id="XMLID_115_" clip-path="url(#XMLID_5_)" fill="#29304C" d="M169.28,310.53c0,0-7.3-1.17-15.72-2.49l17.45,50.31
				c9.68,0.01,18.8,0.05,18.8,0.05L169.28,310.53z"/>
			<path id="XMLID_117_" clip-path="url(#XMLID_5_)" fill="#414C6D" d="M138.86,305.76l24.37,52.59c2.52,0,5.17,0,7.78,0
				l-17.45-50.31C148.63,307.26,143.32,306.44,138.86,305.76z"/>
		</g>
		<polygon id="XMLID_49_" fill="#29304C" points="202.96,319.73 90.38,303.97 88.35,296.43 151.23,208.27 261.78,216.49 
			261.81,224.97 		"/>
		<polygon id="XMLID_48_" fill="#29304C" points="200.93,312.19 88.35,296.43 149.2,200.73 261.78,216.49 		"/>
		<path id="XMLID_118_" fill="#414C6D" d="M221.35,210.83c-32.15,42.81-73.2,82.29-129.22,79.66l-3.78,5.94l112.58,15.76l60.85-95.7
			L221.35,210.83z"/>
		<g id="XMLID_82_">
			<g id="XMLID_112_">
				<path id="XMLID_41_" fill="#F0731F" d="M180.1,269.42c-0.32,0-0.64-0.01-0.96-0.03c-6.16-0.38-10.96-4.35-14.29-11.82
					c-0.6-1.34,0.01-2.92,1.35-3.52c1.35-0.59,2.92,0.01,3.52,1.35c2.49,5.58,5.67,8.42,9.75,8.67
					c8.78,0.52,30.63-10.45,78.44-90.06c0.76-1.26,2.39-1.67,3.66-0.91c1.26,0.76,1.67,2.39,0.91,3.65
					C225.58,238.19,197.88,269.36,180.1,269.42z"/>
			</g>
			
				<ellipse id="XMLID_101_" transform="matrix(0.0543 -0.9985 0.9985 0.0543 30.021 432.7692)" fill="#F0731F" cx="243.49" cy="200.53" rx="7.47" ry="7.47"/>
			<path id="XMLID_91_" fill="#F0731F" d="M257.99,157.24c0,0,18.35,12.81,27.52,19.21c-11.24,7.59-22.47,15.18-33.71,22.77
				c-1.83,1.24-3.75,2.51-5.95,2.82C229.69,204.29,257.99,157.24,257.99,157.24z"/>
		</g>
	</g>
	<g id="XMLID_86_">
		<path id="XMLID_138_" fill="#EC7D31" d="M70,146.52c0.28-0.58,0.43-1.24,0.37-1.94c-0.14-1.59-1.28-2.85-2.74-3.24
			c-1.58-6.39-8.82-17.54-8.82-17.54s-8.83,6.63-13.24,9.94c5.67,3.55,11.34,7.1,17.01,10.65c0.15,0.09,0.29,0.18,0.44,0.27
			c-0.01,0.18-0.01,0.37,0,0.56c0.18,2.03,1.97,3.53,4,3.35c0.24-0.02,0.46-0.07,0.68-0.13c6.66,8.66,12.79,18.12,14.21,28.75
			c1.4,10.47-3.47,23.51-13.97,27.17l0.99,2.83c12.44-4.34,17.49-18.9,15.96-30.4C83.37,165.44,76.95,155.54,70,146.52z"/>
		<g id="XMLID_88_">
			<g id="XMLID_94_">
				<g id="XMLID_95_">
					<g id="XMLID_102_">
						<polygon id="XMLID_133_" fill="#335780" points="19.12,236.92 17.83,233.86 59.4,182.29 123.85,194.4 125.44,197.83 						"/>
						<polygon id="XMLID_132_" fill="#1F3B61" points="84.05,249.11 125.51,197.69 60.58,185.49 19.12,236.92 						"/>
						<path id="XMLID_131_" opacity="0.56" fill="#193457" d="M29.66,238.9c3.4-4.26,7.12-8.6,11.19-12.97
							c13.24-14.19,26.86-25.03,39.21-33.29c14.72,2.21,29.44,4.43,44.15,6.64l-40.17,49.83L29.66,238.9z"/>
						<path id="XMLID_129_" fill="#1F3B61" d="M55.36,262.4c8.38-0.8,19.61-2.74,32.13-7.5c11.44-4.35,20.46-9.73,26.99-14.3
							c-4.2-11.4-8.41-22.8-12.61-34.19c-5.06-1.13-18.46-3.42-33.76,2.54c-14.15,5.51-22.21,15.07-25.37,19.27
							C46.95,239.6,51.16,251,55.36,262.4z"/>
						<path id="XMLID_127_" opacity="0.26" fill="#193457" d="M101.88,206.4c1.94,5.25,3.87,10.5,5.81,15.75
							c-14.95-2.95-31.4,1.57-41.98,12.55c-5.79,6.02-9.63,13.46-12.71,21.28c-3.42-9.26-6.83-18.52-10.25-27.78
							c3.15-4.2,11.22-13.76,25.37-19.27C83.41,202.98,96.81,205.27,101.88,206.4z"/>
						<path id="XMLID_120_" fill="#122A4A" d="M57.17,214.63l16.45,44.62c-6.92,1.73-13.13,2.65-18.26,3.15L42.75,228.2
							C44.97,225.24,49.65,219.62,57.17,214.63z"/>
					</g>
				</g>
			</g>
			<path id="XMLID_92_" fill="#2B4D72" d="M56.04,262.45c0,0,23.94-26.3,58.44-21.85C114.49,240.59,90.36,266.32,56.04,262.45z"/>
			<path id="XMLID_89_" fill="#122A4A" d="M59.64,261.51c0,0,21.75-23.9,53.1-19.86C112.74,241.65,90.82,265.03,59.64,261.51z"/>
		</g>
	</g>
	<g id="XMLID_245_">
		<polygon id="XMLID_267_" fill="#EC7D31" points="42.75,302 19.12,280.15 36,267.78 		"/>
		<polygon id="XMLID_292_" fill="#EC7D31" points="333.53,406.03 344.3,375.7 362.33,386.34 		"/>
		<polygon id="XMLID_294_" fill="#EC7D31" points="270.9,286.96 260.63,256.46 281.38,253.69 		"/>
		<polygon id="XMLID_268_" fill="#FFF6A1" points="56.04,297.44 53,283.38 63,283.38 		"/>
		<polygon id="XMLID_283_" fill="#00C7BE" points="470.34,346.36 474.18,326.84 486.17,331.72 		"/>
		<polygon id="XMLID_299_" fill="#00C7BE" points="23.1,335.8 9.25,321.52 20.09,314.45 		"/>
		<polygon id="XMLID_296_" fill="#00C7BE" points="226.53,440 230.38,420.48 242.36,425.36 		"/>
		<polygon id="XMLID_288_" fill="#00C7BE" points="405.55,273.51 421.62,285.24 412.14,294.04 		"/>
		<polygon id="XMLID_282_" fill="#FFF6A1" points="235.21,375.19 241.63,369.04 244.87,374.3 		"/>
		<polygon id="XMLID_289_" fill="#FFF6A1" points="387.43,301.5 393.85,295.34 397.09,300.61 		"/>
		<polygon id="XMLID_295_" fill="#FFF6A1" points="470.01,311.59 472.09,302.95 477.66,305.63 		"/>
		<polygon id="XMLID_298_" fill="#FFF6A1" points="364.56,363.79 356.16,360.89 359.37,355.61 		"/>
		<polygon id="XMLID_297_" fill="#FFF6A1" points="256.81,343.31 258.89,334.66 264.45,337.34 		"/>
		<polygon id="XMLID_281_" fill="#00C7BE" points="131,363.26 141.5,371.29 144.5,363.24 		"/>
	</g>
</g>
<g id="Designed_by_Freepik">
</g>
</svg>
